<?xml version="1.0" standalone="no"?>
<!DOCTYPE svg PUBLIC "-//W3C//DTD SVG 20010904//EN"
 "http://www.w3.org/TR/2001/REC-SVG-20010904/DTD/svg10.dtd">
<svg version="1.0" xmlns="http://www.w3.org/2000/svg"
 width="980.000000pt" height="980.000000pt" viewBox="0 0 980.000000 980.000000"
 preserveAspectRatio="xMidYMid meet">

<g transform="translate(0.000000,980.000000) scale(0.100000,-0.100000)"
fill="#000000" stroke="none">
<path d="M1381 9789 c-41 -5 -121 -20 -178 -34 -636 -153 -1119 -700 -1193
-1350 -14 -124 -14 -6886 0 -7010 83 -728 667 -1307 1396 -1385 80 -8 746 -10
2529 -8 l2420 3 42 23 c66 35 110 79 140 140 23 46 28 70 28 128 -1 120 -64
217 -174 268 l-46 21 -2470 5 -2470 5 -76 22 c-376 107 -643 389 -720 758 -18
87 -19 210 -19 3525 0 3315 1 3438 19 3525 41 199 135 369 282 510 140 135
297 218 484 256 87 18 214 19 3525 19 3315 0 3438 -1 3525 -19 199 -41 369
-135 510 -282 124 -130 197 -257 248 -439 l22 -75 5 -2461 5 -2460 30 -59
c110 -215 418 -208 526 11 l24 49 3 2405 c2 1773 0 2434 -8 2514 -40 373 -202
702 -477 966 -219 211 -461 339 -778 412 l-100 23 -3490 1 c-1920 1 -3523 -2
-3564 -7z"/>
<path d="M2855 7440 c-124 -33 -210 -85 -310 -185 -145 -144 -205 -287 -205
-491 0 -277 147 -512 395 -630 103 -49 184 -67 300 -67 119 0 199 18 310 72
146 71 250 177 321 326 96 200 90 429 -14 630 -56 107 -191 239 -302 292 -47
23 -115 48 -151 57 -90 22 -254 20 -344 -4z"/>
<path d="M5435 5573 c-604 -780 -1101 -1421 -1104 -1425 -4 -5 -140 217 -301
492 -162 275 -298 498 -302 497 -9 -3 -2332 -2348 -2336 -2358 -2 -5 855 -9
1914 -9 l1918 0 76 78 c184 192 396 300 653 332 45 5 218 10 384 10 l303 0 0
283 c1 319 10 446 40 562 25 95 91 238 150 326 85 126 246 268 380 335 28 14
50 30 50 36 0 6 -20 80 -45 164 -25 83 -45 158 -45 166 0 14 -627 1918 -634
1925 -2 2 -497 -635 -1101 -1414z"/>
<path d="M7625 4207 c-65 -22 -99 -43 -139 -87 -75 -84 -70 -25 -76 -905 l-5
-790 -795 -5 -795 -5 -46 -27 c-55 -33 -105 -87 -130 -142 -23 -51 -25 -155
-3 -219 20 -60 79 -126 140 -157 l49 -25 793 -3 792 -2 0 -783 0 -782 28 -60
c51 -107 146 -168 262 -168 118 0 221 67 272 178 l23 50 3 782 3 783 792 2
c791 3 792 3 832 25 51 27 119 99 141 150 26 58 24 176 -3 234 -25 56 -84 117
-138 144 -39 19 -67 20 -832 23 l-792 2 -3 783 -3 782 -26 56 c-32 67 -87 125
-145 150 -56 25 -148 32 -199 16z"/>
</g>
</svg>
